<?xml version="1.0" encoding="UTF-8" standalone="no" ?>
<!DOCTYPE svg PUBLIC "-//W3C//DTD SVG 1.1//EN" "http://www.w3.org/Graphics/SVG/1.1/DTD/svg11.dtd">
<svg xmlns="http://www.w3.org/2000/svg" xmlns:xlink="http://www.w3.org/1999/xlink" version="1.1" width="1080" height="1080" viewBox="0 0 1080 1080" xml:space="preserve">
<desc>Created with Fabric.js 5.2.4</desc>
<defs>
</defs>
<g transform="matrix(1 0 0 1 540 540)" id="1a985bc3-b9e1-4554-8574-8978a7c986e4"  >
<rect style="stroke: none; stroke-width: 1; stroke-dasharray: none; stroke-linecap: butt; stroke-dashoffset: 0; stroke-linejoin: miter; stroke-miterlimit: 4; fill: rgb(0,0,0); fill-rule: nonzero; opacity: 1; visibility: hidden;" vector-effect="non-scaling-stroke"  x="-540" y="-540" rx="0" ry="0" width="1080" height="1080" />
</g>
<g transform="matrix(1 0 0 1 540 540)" id="fc4c785c-f70e-45c6-82b1-58fc63274b19"  >
</g>
<g transform="matrix(12.56 0 0 12.56 540 540)"  >
<g style=""   >
		<g transform="matrix(1 0 0 1 -3.76 -4.38)"  >
<path style="stroke: none; stroke-width: 1; stroke-dasharray: none; stroke-linecap: butt; stroke-dashoffset: 0; stroke-linejoin: miter; stroke-miterlimit: 4; fill: rgb(255,255,255); fill-rule: nonzero; opacity: 1;" vector-effect="non-scaling-stroke"  transform=" translate(-39.24, -38.62)" d="M 61.3547 12.7004 L 64.8503 16.2461 L 17.129 64.53 L 13.6334 60.9843 L 61.3547 12.7004 Z" stroke-linecap="round" />
</g>
		<g transform="matrix(1 0 0 1 4.33 4.38)"  >
<path style="stroke: none; stroke-width: 1; stroke-dasharray: none; stroke-linecap: butt; stroke-dashoffset: 0; stroke-linejoin: miter; stroke-miterlimit: 4; fill: rgb(255,255,255); fill-rule: nonzero; opacity: 1;" vector-effect="non-scaling-stroke"  transform=" translate(-47.33, -47.38)" d="M 69.4411 21.47 L 72.9367 25.0157 L 25.2154 73.2996 L 21.7199 69.7539 L 69.4411 21.47 Z" stroke-linecap="round" />
</g>
		<g transform="matrix(1 0 0 1 14.58 27.75)"  >
<path style="stroke: none; stroke-width: 1; stroke-dasharray: none; stroke-linecap: butt; stroke-dashoffset: 0; stroke-linejoin: miter; stroke-miterlimit: 4; fill: rgb(255,255,255); fill-rule: nonzero; opacity: 1;" vector-effect="non-scaling-stroke"  transform=" translate(-57.58, -70.75)" d="M 72.8348 68.2413 L 72.8348 73.2525 L 42.3307 73.2525 L 42.3307 68.2413 L 72.8348 68.2413 Z" stroke-linecap="round" />
</g>
		<g transform="matrix(1 0 0 1 -14.68 -26.12)"  >
<path style="stroke: none; stroke-width: 1; stroke-dasharray: none; stroke-linecap: butt; stroke-dashoffset: 0; stroke-linejoin: miter; stroke-miterlimit: 4; fill: rgb(255,255,255); fill-rule: nonzero; opacity: 1;" vector-effect="non-scaling-stroke"  transform=" translate(-28.32, -16.88)" d="M 43.5674 14.3708 L 43.5674 19.382 L 13.0633 19.382 L 13.0633 14.3708 L 43.5674 14.3708 Z" stroke-linecap="round" />
</g>
</g>
</g>
</svg>